<?xml version="1.0" encoding="UTF-8" standalone="no"?>
<svg
   width="946.44995"
   height="854.93469"
   viewBox="0 0 946.44994 854.9347"
   role="img"
   artist="Katerina Limpitsouni"
   source="https://undraw.co/"
   version="1.1"
   id="svg131"
   sodipodi:docname="repair_img_summary.svg"
   inkscape:version="1.3.2 (091e20e, 2023-11-25, custom)"
   xml:space="preserve"
   xmlns:inkscape="http://www.inkscape.org/namespaces/inkscape"
   xmlns:sodipodi="http://sodipodi.sourceforge.net/DTD/sodipodi-0.dtd"
   xmlns="http://www.w3.org/2000/svg"
   xmlns:svg="http://www.w3.org/2000/svg"
   xmlns:rdf="http://www.w3.org/1999/02/22-rdf-syntax-ns#"
   xmlns:cc="http://creativecommons.org/ns#"
   xmlns:dc="http://purl.org/dc/elements/1.1/"><sodipodi:namedview
     id="namedview131"
     pagecolor="#ffffff"
     bordercolor="#666666"
     borderopacity="1.0"
     inkscape:showpageshadow="2"
     inkscape:pageopacity="0.0"
     inkscape:pagecheckerboard="0"
     inkscape:deskcolor="#d1d1d1"
     inkscape:zoom="1.0249229"
     inkscape:cx="500.52548"
     inkscape:cy="434.66686"
     inkscape:window-width="2560"
     inkscape:window-height="1377"
     inkscape:window-x="2552"
     inkscape:window-y="-8"
     inkscape:window-maximized="1"
     inkscape:current-layer="svg131" /><defs
     id="defs3"><linearGradient
       id="af83dc26-9572-4816-b7a1-1af4f72ff554-1668"
       x1="678.20001"
       y1="821.78998"
       x2="678.20001"
       y2="493.39999"
       gradientTransform="matrix(0.9079626,-0.03662627,0.03662627,0.9079626,-98.948455,-24.934756)"
       gradientUnits="userSpaceOnUse"><stop
         offset="0"
         stop-color="gray"
         stop-opacity="0.25"
         id="stop1" /><stop
         offset="0.54"
         stop-color="gray"
         stop-opacity="0.12"
         id="stop2" /><stop
         offset="1"
         stop-color="gray"
         stop-opacity="0.1"
         id="stop3" /></linearGradient></defs><title
     id="title3">bug fixing</title><metadata
     id="metadata132"><rdf:RDF><cc:Work
         rdf:about=""><dc:title>bug fixing</dc:title></cc:Work></rdf:RDF></metadata><g
     id="g151"
     transform="scale(1.100472)"><ellipse
       cx="435.04001"
       cy="660.88"
       rx="425"
       ry="33"
       fill="#6c63ff"
       opacity="0.1"
       id="ellipse3" /><path
       d="m 312.76,51.91 a 20.23,20.23 0 0 0 -11.74,1.28 17.32,17.32 0 0 1 -14.1,0 19.76,19.76 0 0 0 -16.58,0.33 10.28,10.28 0 0 1 -4.77,1.19 c -6.72,0 -12.31,-6.77 -13.47,-15.7 a 13.07,13.07 0 0 0 3.36,-3.62 c 3.94,-6.35 10,-10.43 16.89,-10.43 6.89,0 12.89,4 16.83,10.31 a 13,13 0 0 0 11.16,6.14 h 0.18 c 5.3,-0.03 9.93,4.26 12.24,10.5 z"
       fill="#6c63ff"
       opacity="0.1"
       id="path81" /><path
       d="m 333.18,23.91 -10.86,6.89 6.59,-12 a 10.74,10.74 0 0 0 -6.57,-2.34 h -0.17 a 12.89,12.89 0 0 1 -2.25,-0.17 l -3.69,2.34 1.58,-2.87 a 13.19,13.19 0 0 1 -6.44,-4.85 l -6.61,4.13 4.16,-7.57 C 305.07,2.84 299.87,0 294.16,0 c -6.85,0 -13,4.08 -16.9,10.43 a 12.62,12.62 0 0 1 -11.17,6 h -0.33 c -7.56,0 -13.7,8.57 -13.7,19.16 0,10.59 6.14,19.15 13.7,19.15 a 10.28,10.28 0 0 0 4.77,-1.19 19.72,19.72 0 0 1 16.58,-0.32 17.37,17.37 0 0 0 14.1,0 19.75,19.75 0 0 1 16.43,0.32 10.35,10.35 0 0 0 4.72,1.16 c 7.57,0 13.7,-8.57 13.7,-19.15 a 24.36,24.36 0 0 0 -2.88,-11.65 z"
       fill="#6c63ff"
       opacity="0.1"
       id="path82" /><path
       d="m 86.76,190.45 a 29,29 0 0 0 -16.77,1.82 24.71,24.71 0 0 1 -20.14,-0.05 28.22,28.22 0 0 0 -23.68,0.47 14.75,14.75 0 0 1 -6.82,1.7 c -9.6,0 -17.59,-9.67 -19.25,-22.43 a 18.41,18.41 0 0 0 4.8,-5.17 c 5.63,-9.07 14.35,-14.9 24.14,-14.9 9.79,0 18.4,5.76 24,14.73 a 18.52,18.52 0 0 0 16,8.77 h 0.25 c 7.58,-0.01 14.2,6.12 17.47,15.06 z"
       fill="#6c63ff"
       opacity="0.1"
       id="path83" /><path
       d="m 115.96,150.4 -15.52,9.84 9.42,-17.13 a 15.34,15.34 0 0 0 -9.39,-3.35 h -0.25 A 18.16,18.16 0 0 1 97,139.52 l -5.24,3.39 2.26,-4.1 a 18.7,18.7 0 0 1 -9.2,-7 l -9.42,6 5.93,-10.9 C 75.82,120.3 68.4,116.25 60.24,116.25 c -9.79,0 -18.51,5.82 -24.14,14.89 a 18.05,18.05 0 0 1 -16,8.61 H 19.57 C 8.76,139.75 0,152 0,167.12 c 0,15.12 8.76,27.37 19.57,27.37 a 14.61,14.61 0 0 0 6.82,-1.71 28.22,28.22 0 0 1 23.68,-0.46 24.71,24.71 0 0 0 20.14,0.05 28.25,28.25 0 0 1 23.48,0.45 14.65,14.65 0 0 0 6.74,1.67 c 10.81,0 19.57,-12.26 19.57,-27.37 a 34.76,34.76 0 0 0 -4.04,-16.72 z"
       fill="#6c63ff"
       opacity="0.1"
       id="path84" /><path
       d="m 714.38,90.91 a 20.24,20.24 0 0 1 11.74,1.28 17.29,17.29 0 0 0 14.09,0 19.76,19.76 0 0 1 16.58,0.33 10.31,10.31 0 0 0 4.77,1.19 c 6.72,0 12.32,-6.77 13.48,-15.7 a 12.93,12.93 0 0 1 -3.36,-3.62 c -3.92,-6.37 -10.05,-10.48 -16.92,-10.48 -6.87,0 -12.88,4 -16.82,10.31 a 13,13 0 0 1 -11.18,6.17 h -0.17 c -5.32,-0.01 -9.96,4.28 -12.21,10.52 z"
       fill="#6c63ff"
       opacity="0.1"
       id="path85" /><path
       d="m 693.9,62.91 10.86,6.87 -6.6,-12 a 10.76,10.76 0 0 1 6.57,-2.34 h 0.18 a 13,13 0 0 0 2.25,-0.17 l 3.68,2.34 -1.58,-2.87 a 13.21,13.21 0 0 0 6.5,-4.83 l 6.59,4.18 -4.17,-7.57 c 3.86,-4.63 9,-7.47 14.77,-7.47 6.85,0 13,4.08 16.9,10.43 a 12.61,12.61 0 0 0 11.17,6 h 0.36 c 7.57,0 13.7,8.57 13.7,19.16 0,10.59 -6.13,19.15 -13.7,19.15 a 10.34,10.34 0 0 1 -4.77,-1.19 19.72,19.72 0 0 0 -16.58,-0.32 17.35,17.35 0 0 1 -14.09,0 19.77,19.77 0 0 0 -16.44,0.32 10.32,10.32 0 0 1 -4.72,1.16 c -7.56,0 -13.7,-8.57 -13.7,-19.15 a 24.36,24.36 0 0 1 2.82,-11.7 z"
       fill="#6c63ff"
       opacity="0.1"
       id="path86" /><ellipse
       cx="582.03998"
       cy="756.88"
       rx="115"
       ry="20"
       fill="#6c63ff"
       opacity="0.1"
       id="ellipse86" /><polygon
       points="555.44,661.88 377.25,659.59 377.78,655.02 386.39,579.63 542.88,579.63 554.39,655.02 555.27,660.74 "
       fill="#d0d2d5"
       id="polygon86"
       transform="translate(-33.59)" /><polygon
       points="377.25,659.59 377.78,655.02 554.39,655.02 555.27,660.74 466.35,660.74 "
       opacity="0.1"
       id="polygon87"
       transform="translate(-33.59)" /><rect
       x="313.95999"
       y="656.16998"
       width="236.45"
       height="5.71"
       fill="#d0d2d5"
       id="rect87" /><path
       d="M 776,126.83 A 14.87,14.87 0 0 0 761.2,111.91 H 100.88 a 14.87,14.87 0 0 0 -14.8,14.94 V 527.1 H 776 Z"
       fill="#3f3d56"
       id="path87" /><path
       d="m 86.08,523.1 v 46.88 a 14.8,14.8 0 0 0 14.8,14.8 H 761.2 A 14.8,14.8 0 0 0 776,569.98 V 523.1 Z"
       fill="#d0d2d5"
       id="path88" /><rect
       x="114.64"
       y="137.00999"
       width="636.22998"
       height="359.81"
       fill="#ffffff"
       id="rect88"
       style="fill:#fdf8ef;fill-opacity:1" /><path
       d="m 434.47,566.99 a 15.4,15.4 0 0 0 12.13,-5.89 v 0 a 16.06,16.06 0 0 0 1.2,-1.76 l -8.47,-1.43 9.15,0.06 a 15.42,15.42 0 0 0 0.29,-12.21 l -12.27,6.36 11.32,-8.32 a 15.42,15.42 0 1 0 -25.47,17.26 v 0 a 15.4,15.4 0 0 0 12.12,5.93 z"
       fill="#6c63ff"
       id="path89"
       style="fill:#d26b65;fill-opacity:1" /><polygon
       points="554.57,656.17 543.66,584.77 483.48,584.77 "
       opacity="0.1"
       id="polygon89"
       transform="translate(-33.59)" /><rect
       x="114.14"
       y="137.05"
       width="636.91998"
       height="21.02"
       fill="#444053"
       opacity="0.1"
       id="rect89" /><circle
       cx="125.59"
       cy="147.56"
       r="3.8499999"
       fill="#fa5959"
       opacity="0.8"
       id="circle90" /><circle
       cx="136.18001"
       cy="147.56"
       r="3.8499999"
       fill="#fed253"
       opacity="0.8"
       id="circle91" /><circle
       cx="146.78"
       cy="147.56"
       r="3.8499999"
       fill="#8ccf4d"
       opacity="0.8"
       id="circle92" /><path
       d="m 647.41,745.22 a 9.56,9.56 0 0 0 -2.17,-2.41 c -4.37,-4.13 -6.4,-10.19 -7.48,-16.13 -1.08,-5.94 -1.39,-12 -3.12,-17.81 a 58.74,58.74 0 0 0 -3.52,-8.67 c -1,-2.14 -2.26,-6.33 -4.09,-7.83 a 2.7,2.7 0 0 0 -1.26,-0.61 14.85,14.85 0 0 0 -3.62,-4.82 c -2.86,-2.59 -6.35,-4.65 -8.26,-8 a 18,18 0 0 0 -1.93,-3.29 c -1.29,-1.42 -3.33,-2 -4.52,-3.5 -1.55,-1.94 -1.2,-4.72 -1,-7.19 0.2,-2.47 0,-5.43 -2.14,-6.73 -1.28,-0.79 -2.93,-0.71 -4.26,-1.41 -2,-1 -2.79,-3.52 -2.75,-5.77 0.04,-2.25 0.74,-4.44 0.92,-6.69 0.56,-7.16 -4.16,-14.28 -2.34,-21.22 0.69,-2.63 2.27,-4.91 3.44,-7.36 a 15.37,15.37 0 0 0 1,-2.54 35.73,35.73 0 0 0 9.74,2.35 c -5.51,-12.36 -4.11,-26.72 -6.68,-40 l 0.33,-0.45 a 20.84,20.84 0 0 0 4.22,-11.86 c 0,-4.94 -2.31,-9.56 -3.35,-14.4 -0.89,-4.11 -0.85,-8.41 -2,-12.45 a 37.65,37.65 0 0 0 -3.16,-7.22 q -1.87,-3.47 -3.93,-6.83 -1.92,-6.36 -3.85,-12.72 c -1.8,-5.95 -3.65,-12 -7.15,-17.14 -1.28,-1.88 -1.67,-5.7 -3.64,-6.84 a 8.81,8.81 0 0 0 -5.2,-0.91 c -2.78,-1.56 -5.22,-3.81 -5.57,-6.89 a 6.68,6.68 0 0 1 0.2,-2 h 0.34 c 4.4,-0.4 6.63,-4.28 8.92,-7.68 3.7,-5.5 2.29,-12.94 0,-19.2 a 13,13 0 0 0 -3,-5.29 c -3.21,-3 -8.29,-2.34 -12.43,-3.79 -1.39,-0.48 -2.69,-1.21 -4.11,-1.55 -2.75,-0.64 -5.63,0.26 -8.15,1.53 -2.52,1.27 -4.87,2.91 -7.51,3.91 -2.64,1 -5.9,1.79 -6.55,4.5 a 5,5 0 0 0 0.22,2.73 10.18,10.18 0 0 0 3.09,4.46 17.81,17.81 0 0 0 10.87,24.82 c 0.76,1.22 1.47,2.46 2.12,3.73 1.16,2.24 2.14,4.88 1.74,7.28 a 22.45,22.45 0 0 0 -2,2.45 c -2.87,4 -4.5,8.69 -6,13.37 a 141.65,141.65 0 0 0 -4.83,18.27 c -2.44,5.19 -5.42,10.15 -7.19,15.6 a 35.21,35.21 0 0 1 -9.38,-1.26 l -8.44,-1.91 c -2.94,-0.67 -6,-1.39 -8.3,-3.33 -1.22,-1 -2.17,-2.33 -3.41,-3.32 -1.24,-0.99 -3.73,-2.15 -5.09,-1.33 a 4,4 0 0 0 -0.69,0.53 c -1.24,-2.51 -2.42,-5 -3.86,-7.43 -2.07,-3.4 -5.15,-6.51 -9.05,-7.16 a 9.21,9.21 0 0 0 -6.79,1.58 c -2.28,1.62 -3.71,5 -2,7.28 a 13.29,13.29 0 0 0 1.39,1.42 29.2,29.2 0 0 1 3.09,4.29 21.91,21.91 0 0 0 13.49,8.76 l -0.35,1 c -0.71,2.08 -2.22,4.59 -1.84,6.75 l 37.54,12.85 a 23.13,23.13 0 0 0 7.56,1.67 12.21,12.21 0 0 0 3,-0.4 v 1.92 0.08 c 0.1,13.19 -2,26.29 -2.39,39.47 -0.07,2.41 0,5 1.52,6.88 1.7,2.06 4.72,2.47 7.35,2 q 0.95,-0.16 1.86,-0.42 a 69.33,69.33 0 0 1 1.92,10.11 l 2.48,17.86 a 27.14,27.14 0 0 1 0.39,5.54 c -0.29,4.19 -2.5,7.94 -4.1,11.81 -1.6,3.87 -2.55,8.5 -0.45,12.12 0.66,1.12 1.57,2.07 2.16,3.23 a 13.14,13.14 0 0 1 1,5.68 q 0.23,8.08 0.44,16.18 a 1.83,1.83 0 0 0 -1.26,0.25 c -2.08,1.62 -1.85,9.33 -2,11.72 -0.16,4 0,8.08 -0.22,12.12 a 72.22,72.22 0 0 1 -2.61,16.09 10.29,10.29 0 0 1 -2.29,4.61 9.74,9.74 0 0 1 -4.07,2.11 46.49,46.49 0 0 1 -15.41,2.1 c -2.11,-0.07 -4.31,-0.27 -6.27,0.53 -1.96,0.8 -3.54,3 -2.83,5 0.61,1.68 2.46,2.48 4.13,3.11 a 65.53,65.53 0 0 1 11,5.06 29.74,29.74 0 0 0 4.25,2.41 21.91,21.91 0 0 0 4.38,1.08 l 17.73,3.06 c 3.63,0.62 8,1 10.31,-2 1.25,-1.62 1.43,-3.82 1.37,-5.88 -0.1,-4 -0.9,-8.07 -0.38,-12.07 a 37.14,37.14 0 0 1 1.86,-6.93 q 2.65,-7.87 5.32,-15.73 c 1.78,-5.26 3.58,-10.57 4.27,-16.09 0.25,-2 0.23,-4.28 -1.3,-5.53 a 3.54,3.54 0 0 0 -1.32,-0.68 c -0.06,-4.82 -0.69,-9.65 -0.42,-14.47 0.07,-1.2 0.19,-2.4 0.29,-3.61 a 17.61,17.61 0 0 1 2.47,2.92 c 1.71,2.68 2.34,6.22 4.95,8 2.22,1.52 5.51,1.44 7.07,3.64 a 10.26,10.26 0 0 1 1.12,2.71 19.32,19.32 0 0 0 4,6.35 32,32 0 0 0 2.47,6.34 q 2.21,4.67 4.4,9.31 a 108.59,108.59 0 0 0 5,9.77 27.55,27.55 0 0 1 3.35,6.46 c 1.41,4.94 -0.89,10.36 -4.53,14 -3.64,3.64 -8.44,5.73 -13.17,7.68 a 3.71,3.71 0 0 0 -1.34,0.8 2.59,2.59 0 0 0 -0.61,1.74 c 0,2.31 1.9,4.29 4.08,5 a 15.26,15.26 0 0 0 6.83,0.25 c 12.78,-1.55 25.52,-4.67 36.82,-10.88 a 13,13 0 0 0 4.39,-3.39 5.13,5.13 0 0 0 0.73,-5.21 z"
       fill="url(#af83dc26-9572-4816-b7a1-1af4f72ff554-1668)"
       id="path94"
       style="fill:url(#af83dc26-9572-4816-b7a1-1af4f72ff554-1668)" /><path
       d="m 593.4,520.97 q 3.2,4.91 6,10.06 a 37,37 0 0 1 3.17,7.17 c 1.16,4 1.13,8.27 2,12.35 1,4.8 3.34,9.38 3.34,14.3 a 20.56,20.56 0 0 1 -4.22,11.76 55.82,55.82 0 0 1 -8.82,9.1 187.62,187.62 0 0 1 -12.48,-61.21 c -0.1,-2.9 -0.12,-5.89 0.94,-8.6 0.65,-1.7 3.77,-6.36 5.78,-4.53 0.73,0.67 0.92,3.69 1.37,4.7 a 36.13,36.13 0 0 0 2.92,4.9 z"
       fill="#2f2e41"
       id="path95"
       style="fill:#e6e6e6;fill-opacity:1" /><path
       d="m 593.4,520.97 q 3.2,4.91 6,10.06 a 37,37 0 0 1 3.17,7.17 c 1.16,4 1.13,8.27 2,12.35 1,4.8 3.34,9.38 3.34,14.3 a 20.56,20.56 0 0 1 -4.22,11.76 55.82,55.82 0 0 1 -8.82,9.1 187.62,187.62 0 0 1 -12.48,-61.21 c -0.1,-2.9 -0.12,-5.89 0.94,-8.6 0.65,-1.7 3.77,-6.36 5.78,-4.53 0.73,0.67 0.92,3.69 1.37,4.7 a 36.13,36.13 0 0 0 2.92,4.9 z"
       opacity="0.1"
       id="path96" /><circle
       cx="264.30637"
       cy="328.91501"
       r="47"
       fill="#6c63ff"
       id="circle10"
       style="fill:#c83737;fill-opacity:1" /><g
       id="g148"
       transform="translate(-846.73464,224.65726)"><path
         d="m 1131.182,100.51061 h -16.3938 a 5.62074,5.62074 0 0 1 -5.6208,-5.620743 v -16.39384 a 0.46838,0.46838 0 0 0 -0.4684,-0.46839 h -10.773 a 7.49432,7.49432 0 0 0 -7.4944,7.49431 v 37.471583 a 7.49432,7.49432 0 0 0 7.4944,7.49432 h 26.2301 a 7.49432,7.49432 0 0 0 7.4943,-7.49432 v -22.01455 a 0.46839,0.46839 0 0 0 -0.4684,-0.46837 z m -10.7731,18.73577 h -18.7358 a 1.87358,1.87358 0 1 1 0,-3.74716 h 18.7358 a 1.87358,1.87358 0 0 1 0,3.74716 z m 0,-9.3679 h -18.7358 a 1.87358,1.87358 0 1 1 0,-3.74716 h 18.7358 a 1.87358,1.87358 0 1 1 0,3.74716 z"
         fill="#ffffff"
         id="path14" /><path
         d="m 1130.1539,96.364117 -16.84,-16.84 a 0.2342,0.2342 0 0 0 -0.3994,0.16511 v 15.20058 a 1.87358,1.87358 0 0 0 1.8736,1.87358 h 15.2006 a 0.2342,0.2342 0 0 0 0.1651,-0.39931 z"
         fill="#ffffff"
         id="path15" /></g><path
       d="m 329.76,384.54 c -7.91,7.9 -8.86,11.38 -13.61,12.95 -4.75,1.57 -21.84,10.42 -16.47,20.23 l 14.44,9.54 0.42,0.28 2.21,6.64 -21.84,38.88 c 0,0 -36,-16.46 -39.53,7.89 -3.53,24.35 -1.29,31 -2.24,44 -0.95,13 0.31,16.76 -2.86,16.76 -3.17,0 -4.42,-8.54 -4.42,-8.54 0,0 -0.2,-0.39 -0.55,-1.12 -4.71,-9.79 -36.68,-81.66 14.53,-131.06 0,0 23.72,-1.56 29.43,-28.76 3.94,-18.8 17.72,-17.18 26.88,-13.35 a 30.38,30.38 0 0 1 8.22,4.83 40.48,40.48 0 0 1 5.89,7 c 2.61,4.12 4.03,9.29 -0.5,13.83 z"
       fill="#d0d2d5"
       id="path97" /><path
       d="m 314.54,427.54 2.21,6.64 -21.84,38.88 c 0,0 -36,-16.46 -39.53,7.89 -3.53,24.35 -1.29,31 -2.24,44 -0.95,13 0.31,16.76 -2.86,16.76 -3.17,0 -4.42,-8.54 -4.42,-8.54 0,0 -0.2,-0.39 -0.55,-1.12 -1.59,-12.16 -9.65,-83.29 19.57,-79.51 0,0 23.71,11.08 27.5,6.66 3,-3.5 16.32,-23.63 21.74,-31.89 z"
       opacity="0.1"
       id="path98" /><path
       d="m 330.26,370.65 -14.44,16.41 c 0,0 -16.77,22.44 -20.25,21.49 a 16.23,16.23 0 0 0 -3.17,-0.37 6.16,6.16 0 0 1 -4,-10.38 c 5.72,-6 16.26,-17.39 16.95,-19.92 0.69,-2.53 7.4,-13.62 10.76,-19.05 a 30.38,30.38 0 0 1 8.22,4.83 40.48,40.48 0 0 1 5.93,6.99 z"
       opacity="0.1"
       id="path99" /><path
       d="m 738.82,606.74 c -2.45,4.9 -15,23.28 -20.49,31.31 l -2.57,3.78 c 0,0 -1,6.64 -17.39,-1.59 C 681.98,632.01 296.89,469.52 296.89,469.52 l -2.61,-7.84 19,-28.45 422.07,163.07 c 0,0 6.64,4.11 3.47,10.44 z"
       fill="#454b69"
       id="path100" /><path
       d="m 718.33,638.05 -2.57,3.78 c 0,0 -1,6.64 -17.39,-1.59 C 681.98,632.01 296.89,469.52 296.89,469.52 l -2.61,-7.84 z"
       opacity="0.1"
       id="path101" /><path
       d="m 486.05,531.91 c -3.91,-0.64 -8.25,-0.33 -11.29,2.21 a 9.29,9.29 0 0 0 -3.24,6.16 c -0.26,2.77 1.35,6.06 4.13,6.27 a 13.17,13.17 0 0 0 2,-0.13 29.89,29.89 0 0 1 5.24,0.44 21.39,21.39 0 0 0 18.23,-7.36 c 2.39,-3 -0.76,-4.3 -3.58,-4.9 -3.86,-0.82 -7.63,-2.07 -11.49,-2.69 z"
       fill="#fbbebe"
       id="path102"
       style="fill:#a0616a;fill-opacity:1" /><path
       d="m 552.93,622.22 2.48,17.62 a 26.84,26.84 0 0 1 0.38,5.51 c -0.29,4.15 -2.5,7.87 -4.09,11.71 -1.59,3.84 -2.56,8.44 -0.45,12 0.65,1.11 1.56,2.06 2.15,3.21 a 12.92,12.92 0 0 1 1,5.63 l 0.68,25 a 157.33,157.33 0 0 0 23.18,-0.13 1.29,1.29 0 0 0 0.84,-0.26 1.36,1.36 0 0 0 0.29,-0.91 c 0.34,-5.85 -0.68,-11.71 -0.35,-17.56 0.12,-2.14 0.42,-4.27 0.46,-6.42 0.12,-8.71 -4.18,-17.24 -2.88,-25.85 a 57,57 0 0 1 1.6,-6.43 c 4.11,-15 3.24,-30.76 2.33,-46.25 a 1.09,1.09 0 0 0 -0.2,-0.7 1.06,1.06 0 0 0 -0.54,-0.29 28.45,28.45 0 0 0 -25.78,4.9 c -1.09,0.88 -3.84,1.73 -4.56,2.78 -1,1.46 0.31,2.92 0.89,4.47 a 56.89,56.89 0 0 1 2.57,11.97 z"
       fill="#3f3d56"
       id="path103" /><path
       d="m 552.93,622.22 2.48,17.62 a 26.84,26.84 0 0 1 0.38,5.51 c -0.29,4.15 -2.5,7.87 -4.09,11.71 -1.59,3.84 -2.56,8.44 -0.45,12 0.65,1.11 1.56,2.06 2.15,3.21 a 12.92,12.92 0 0 1 1,5.63 l 0.68,25 a 157.33,157.33 0 0 0 23.18,-0.13 1.29,1.29 0 0 0 0.84,-0.26 1.36,1.36 0 0 0 0.29,-0.91 c 0.34,-5.85 -0.68,-11.71 -0.35,-17.56 0.12,-2.14 0.42,-4.27 0.46,-6.42 0.12,-8.71 -4.18,-17.24 -2.88,-25.85 a 57,57 0 0 1 1.6,-6.43 c 4.11,-15 3.24,-30.76 2.33,-46.25 a 1.09,1.09 0 0 0 -0.2,-0.7 1.06,1.06 0 0 0 -0.54,-0.29 28.45,28.45 0 0 0 -25.78,4.9 c -1.09,0.88 -3.84,1.73 -4.56,2.78 -1,1.46 0.31,2.92 0.89,4.47 a 56.89,56.89 0 0 1 2.57,11.97 z"
       opacity="0.1"
       id="path104" /><path
       d="m 599.3,616.91 c -1.17,2.43 -2.74,4.69 -3.44,7.3 -1.82,6.89 2.89,14 2.33,21.06 -0.18,2.23 -0.87,4.4 -0.92,6.63 -0.05,2.23 0.77,4.71 2.75,5.74 1.33,0.68 3,0.61 4.25,1.39 2.11,1.29 2.35,4.22 2.14,6.68 -0.21,2.46 -0.56,5.21 1,7.13 1.19,1.49 3.23,2.07 4.51,3.48 a 17.17,17.17 0 0 1 1.93,3.26 c 1.91,3.34 5.4,5.38 8.26,8 2.86,2.62 5.28,6.46 4,10.09 -0.94,2.66 -3.58,4.3 -6.12,5.55 a 64.93,64.93 0 0 1 -14.57,5.15 3.52,3.52 0 0 1 -1.67,0.09 3.57,3.57 0 0 1 -1.46,-1 c -2.95,-2.89 -6,-5.92 -7.36,-9.81 a 10.07,10.07 0 0 0 -1.12,-2.68 c -1.56,-2.19 -4.85,-2.11 -7.07,-3.62 -2.6,-1.77 -3.23,-5.28 -4.93,-7.93 -1.7,-2.65 -4.19,-4.23 -6,-6.56 -3.06,-3.88 -3.81,-9.06 -6,-13.49 -0.93,-1.88 -2.12,-3.64 -2.86,-5.6 a 30.58,30.58 0 0 1 -1.37,-7.24 c -1.41,-11.68 -5,-23.44 -2.74,-35 0.5,-2.54 1.27,-5 1.59,-7.62 0.55,-4.53 -0.32,-9.17 0.35,-13.69 a 3.77,3.77 0 0 1 1.51,-2.91 4,4 0 0 1 1.72,-0.35 117.28,117.28 0 0 1 17.78,0.4 c 3,0.29 6.36,0.9 8.16,3.35 1.53,2.1 1.45,4.91 1.94,7.46 0.61,3.14 2.2,4.85 3.87,7.31 1.67,2.46 0.77,4.89 -0.46,7.43 z"
       fill="#3f3d56"
       id="path105" /><path
       d="m 576.23,698.17 c 1.58,0 3.33,-0.1 4.55,0.9 1.52,1.25 1.54,3.54 1.3,5.49 -0.7,5.48 -2.49,10.75 -4.28,16 l -5.32,15.61 a 36.65,36.65 0 0 0 -1.86,6.88 c -0.52,4 0.28,8 0.38,12 0,2 -0.13,4.22 -1.38,5.83 -2.26,2.91 -6.67,2.57 -10.3,2 l -17.71,-3 a 21.07,21.07 0 0 1 -4.38,-1.07 30.61,30.61 0 0 1 -4.25,-2.39 65.42,65.42 0 0 0 -11,-5 c -1.66,-0.62 -3.52,-1.41 -4.12,-3.08 -0.71,-2 0.87,-4.2 2.83,-5 1.96,-0.8 4.15,-0.6 6.27,-0.54 a 47,47 0 0 0 15.4,-2.08 9.74,9.74 0 0 0 4.06,-2.1 10,10 0 0 0 2.34,-4.71 70.17,70.17 0 0 0 2.68,-16 c 0.21,-4 0.07,-8 0.23,-12 0.1,-2.37 -0.13,-10 1.95,-11.63 1.59,-1.22 8.13,2.15 10.28,2.64 a 50,50 0 0 0 12.33,1.25 z"
       fill="#2f2e41"
       id="path106" /><path
       d="m 634.57,709.29 c 1.73,5.73 2,11.79 3.12,17.68 1.12,5.89 3.1,11.9 7.47,16 a 9.87,9.87 0 0 1 2.17,2.4 5.06,5.06 0 0 1 -0.75,5.23 13.13,13.13 0 0 1 -4.39,3.37 c -11.29,6.16 -24,9.27 -36.81,10.81 a 15.51,15.51 0 0 1 -6.82,-0.25 c -2.18,-0.74 -4.11,-2.7 -4.07,-5 a 2.55,2.55 0 0 1 0.6,-1.73 3.73,3.73 0 0 1 1.35,-0.79 c 4.72,-1.94 9.51,-4.05 13.16,-7.63 3.65,-3.58 5.94,-9 4.53,-13.86 a 27.42,27.42 0 0 0 -3.37,-6.41 108.35,108.35 0 0 1 -5,-9.69 l -4.4,-9.23 c -1.29,-2.7 -2.59,-5.48 -2.81,-8.46 a 40.6,40.6 0 0 0 16.22,-2.6 25.51,25.51 0 0 0 6.67,-4 c 1.7,-1.42 3.25,-4.07 5.54,-2.22 1.84,1.48 3,5.65 4.08,7.76 a 57,57 0 0 1 3.51,8.62 z"
       fill="#2f2e41"
       id="path107" /><path
       d="m 570.09,480.1 c 0.44,3.84 4.16,6.37 7.71,7.89 l -22.47,7.17 c 1.45,-2.78 0.28,-6.18 -1.16,-9 a 50.93,50.93 0 0 0 -4,-6.41 c -0.22,-0.31 -0.47,-0.7 -0.31,-1.06 a 1.12,1.12 0 0 1 0.63,-0.49 c 4.62,-2.06 9.38,-4.19 14.43,-4.94 1.46,-0.21 4.22,-0.79 5.31,0.69 1.09,1.48 -0.35,4.38 -0.14,6.15 z"
       fill="#fbbebe"
       id="path108"
       style="fill:#a0616a;fill-opacity:1" /><path
       d="m 570.09,480.1 c 0.44,3.84 4.16,6.37 7.71,7.89 l -22.47,7.17 c 1.45,-2.78 0.28,-6.18 -1.16,-9 a 50.93,50.93 0 0 0 -4,-6.41 c -0.22,-0.31 -0.47,-0.7 -0.31,-1.06 a 1.12,1.12 0 0 1 0.63,-0.49 c 4.62,-2.06 9.38,-4.19 14.43,-4.94 1.46,-0.21 4.22,-0.79 5.31,0.69 1.09,1.48 -0.35,4.38 -0.14,6.15 z"
       opacity="0.1"
       id="path109" /><circle
       cx="557.02997"
       cy="465.59"
       r="17.620001"
       fill="#fbbebe"
       id="circle109"
       style="fill:#a0616a;fill-opacity:1" /><path
       d="m 541.76,610.59 c 1.71,2.05 4.72,2.45 7.35,2 6.15,-1 11.18,-5.53 17.2,-7.16 7.38,-2 15.19,0.57 22.16,3.72 6.97,3.15 13.9,7 21.52,7.54 -6.89,-15.36 -2.95,-33.84 -9.54,-49.33 -1.61,-3.79 -3.86,-7.44 -4.22,-11.54 -0.45,-5.09 2.09,-10 2.48,-15.06 0.36,-4.51 -1,-9 -2.3,-13.3 q -2.41,-7.92 -4.82,-15.84 c -1.8,-5.91 -3.65,-11.92 -7.14,-17 -1.29,-1.87 -1.68,-5.66 -3.64,-6.79 -4.28,-2.47 -10.77,0.64 -15.41,0.81 -4.64,0.17 -8.87,3.47 -11.58,7.2 -2.87,3.94 -4.5,8.63 -6,13.27 a 126.15,126.15 0 0 0 -5.33,21.23 c -0.15,1.08 -0.28,2.16 -0.38,3.25 -1,10.27 0.46,20.6 0.54,30.92 v 0.07 c 0.1,13.09 -2,26.1 -2.39,39.18 -0.04,2.39 0.02,5 1.5,6.83 z"
       fill="#2f2e41"
       id="path110"
       style="fill:#e6e6e6;fill-opacity:1" /><path
       d="m 542.68,564.52 c 3.45,-0.87 6.57,-3.1 9.25,-5.54 a 38.67,38.67 0 0 0 6.14,-7 49.86,49.86 0 0 0 5.29,-11.07 129.36,129.36 0 0 0 7,-32.27 c 0.26,-3 0.34,-6.22 -1.45,-8.6 a 7.24,7.24 0 0 0 -8.75,-2.12 c -2.36,1.15 -3.89,3.48 -5.31,5.71 -2.81,4.42 -5.64,8.9 -7.45,13.82 -0.8,2.18 -1.39,4.42 -2.17,6.61 a 61,61 0 0 1 -2.74,6.33 c -0.15,1.08 -0.28,2.16 -0.38,3.25 -0.93,10.27 0.49,20.56 0.57,30.88 z"
       opacity="0.1"
       id="path111" /><path
       d="m 568.86,498.11 c 1.79,2.38 1.71,5.63 1.46,8.59 a 129.18,129.18 0 0 1 -7,32.27 49.43,49.43 0 0 1 -5.29,11.16 39.07,39.07 0 0 1 -6.14,7 c -3.4,3.1 -7.54,5.87 -12.15,5.91 a 23.16,23.16 0 0 1 -7.56,-1.65 l -37.55,-12.78 c -0.38,-2.14 1.13,-4.64 1.84,-6.7 l 2,-5.93 c 0.57,-1.64 1.23,-3.41 2.72,-4.3 1.49,-0.89 3.85,0.33 5.09,1.32 1.24,0.99 2.18,2.29 3.4,3.3 2.31,1.92 5.36,2.64 8.3,3.3 l 8.43,1.89 a 35.2,35.2 0 0 0 9.38,1.25 c 2.35,-7.18 6.82,-13.5 9.35,-20.62 0.78,-2.18 1.37,-4.43 2.18,-6.61 1.8,-4.92 4.64,-9.39 7.45,-13.82 1.41,-2.22 2.94,-4.55 5.31,-5.71 a 7.23,7.23 0 0 1 8.78,2.13 z"
       fill="#2f2e41"
       id="path112"
       style="fill:#e6e6e6;fill-opacity:1" /><path
       d="m 562.65,469.57 a 8.89,8.89 0 0 0 -1.06,-3.3 2.77,2.77 0 0 0 -3,-1.32 c -1.76,0.55 -2.35,3.27 -4.19,3.36 -1.24,0.06 -2.13,-1.2 -2.52,-2.38 -0.39,-1.18 -0.6,-2.53 -1.53,-3.36 a 5.7,5.7 0 0 0 -2.18,-1 c -4.27,-1.35 -8.68,-3.84 -10.1,-8.09 a 4.84,4.84 0 0 1 -0.23,-2.71 c 0.65,-2.69 4,-3.5 6.55,-4.47 2.55,-0.97 5,-2.63 7.5,-3.89 2.5,-1.26 5.4,-2.15 8.15,-1.51 a 42.47,42.47 0 0 1 4.11,1.53 c 4.14,1.44 9.21,0.77 12.42,3.76 a 12.83,12.83 0 0 1 3,5.24 c 2.24,6.22 3.66,13.6 -0.05,19.06 -2.29,3.37 -4.51,7.22 -8.91,7.63 -5.12,0.43 -7.15,-4.21 -7.96,-8.55 z"
       fill="#2f2e41"
       id="path113" /><g
       opacity="0.1"
       id="g115"
       transform="translate(-33.59)"><path
         d="m 677.07,520.9 c -0.39,-1.18 -0.6,-2.53 -1.52,-3.36 a 5.7,5.7 0 0 0 -2.18,-1 c -4.28,-1.35 -8.68,-3.84 -10.11,-8.09 a 4.93,4.93 0 0 1 -0.22,-2.71 3.39,3.39 0 0 1 0.53,-1.19 c -1.63,0.71 -3.05,1.65 -3.45,3.31 a 4.84,4.84 0 0 0 0.23,2.71 c 1.42,4.25 5.83,6.74 10.1,8.09 a 5.7,5.7 0 0 1 2.18,1 c 0.93,0.83 1.13,2.17 1.53,3.36 0.4,1.19 1.28,2.44 2.52,2.38 1.24,-0.06 1.84,-1.19 2.63,-2.14 -1.09,-0.14 -1.88,-1.26 -2.24,-2.36 z"
         transform="translate(-88.65,-57.09)"
         id="path114" /><path
         d="m 695.79,533.06 c -5.14,0.47 -7.17,-4.21 -8,-8.52 a 8.7,8.7 0 0 0 -1,-3.3 2.78,2.78 0 0 0 -3,-1.32 5.32,5.32 0 0 0 -2.21,2 3,3 0 0 1 2.26,1.4 8.89,8.89 0 0 1 1.06,3.3 c 0.81,4.31 2.84,9 8,8.52 a 8.25,8.25 0 0 0 5.28,-2.74 7.46,7.46 0 0 1 -2.39,0.66 z"
         transform="translate(-88.65,-57.09)"
         id="path115" /></g><g
       id="g143"
       transform="translate(10)"><circle
         id="baf12095-0797-4180-a98d-6422936d747a"
         data-name="Ellipse 44"
         cx="591.20355"
         cy="328.91501"
         r="45.121201"
         fill="#6c63ff"
         style="fill:#89a02c;stroke-width:0.534319" /><path
         id="b582f34e-fd02-4670-b1d8-d23f069ed737-3463"
         data-name="Path 395"
         d="m 586.73232,346.1274 a 4.6797362,4.6797362 0 0 1 -2.81536,-0.93566 l -0.0504,-0.0378 -10.6041,-8.11179 a 4.712378,4.712378 0 1 1 5.73422,-7.47962 l 6.86847,5.26706 16.23058,-21.17456 a 4.7104007,4.7104007 0 0 1 6.60418,-0.87232 l 0.002,10e-4 -0.10073,0.13987 0.10347,-0.13987 a 4.7160752,4.7160752 0 0 1 0.87129,6.60551 l -19.09068,24.89483 a 4.7132273,4.7132273 0 0 1 -3.7482,1.83774 z"
         fill="#ffffff"
         style="stroke-width:0.534319" /></g><circle
       cx="432.75497"
       cy="328.91501"
       r="47"
       fill="#6c63ff"
       id="circle11"
       style="fill:#ffcc00;fill-opacity:1" /><g
       id="g150"><path
         d="m 435.00656,327.68411 -2.433,-2.43384 a 2.98172,2.98172 0 0 0 -4.206,-0.0112 l -16.9149,15.6103 a 3.15889,3.15889 0 0 0 -1.0576,2.14871 2.992,2.992 0 0 0 0.8582,2.23071 l 3.634,3.67405 0.01,0.007 a 3.00877,3.00877 0 0 0 2.1143,0.87775 h 0.11 a 3.12884,3.12884 0 0 0 2.159,-1.04081 l 15.7187,-16.83791 a 2.98174,2.98174 0 0 0 0.018,-4.21677 z"
         fill="#ffffff"
         id="path23" /><path
         d="m 454.55926,322.76518 -0.029,-0.0289 -3.1933,-3.16064 a 1.99963,1.99963 0 0 0 -1.4238,-0.5833 2.03966,2.03966 0 0 0 -1.1917,0.38576 c 0,-0.0401 0.01,-0.0792 0.01,-0.11368 a 3.40623,3.40623 0 0 0 -0.4845,-2.35 24.03891,24.03891 0 0 0 -2.3109,-2.678 l -0.01,-0.007 a 25.22236,25.22236 0 0 0 -8.0805,-5.21244 13.00307,13.00307 0 0 0 -4.946,-0.97372 9.426,9.426 0 0 0 -6.0333,2.1133 11.174,11.174 0 0 0 -1.3213,1.51137 1.49087,1.49087 0 0 0 1.7378,2.268 6.9359,6.9359 0 0 1 0.7995,-0.24506 5.91293,5.91293 0 0 1 1.7191,-0.10716 7.22788,7.22788 0 0 1 3.3256,1.21971 4.78951,4.78951 0 0 1 1.7014,3.82873 9.9386,9.9386 0 0 1 -1.8636,3.21282 1.49086,1.49086 0 0 0 0.1352,1.95676 l 3.2062,3.2063 a 1.49087,1.49087 0 0 0 2.05,0.0578 c 0.9066,-0.80973 2.2875,-2.03038 2.7702,-2.32948 a 3.4702,3.4702 0 0 1 1.3697,-0.54044 1.78717,1.78717 0 0 1 1.052,0.22177 0.11556,0.11556 0 0 1 -0.029,0.0885 l -0.1695,0.1612 -0.028,0.0261 a 2.00521,2.00521 0 0 0 0,2.83579 l 0.01,0.01 3.1923,3.1597 a 1.99865,1.99865 0 0 0 1.4238,0.58237 2.02193,2.02193 0 0 0 1.4181,-0.57771 l 5.1715,-5.10808 c 0.018,-0.0177 0.035,-0.0363 0.052,-0.055 a 2.03783,2.03783 0 0 0 -0.026,-2.77481 z"
         fill="#ffffff"
         id="path24" /></g></g></svg>
