<?xml version="1.0" encoding="UTF-8" standalone="no"?>
<!-- Created with Inkscape (http://www.inkscape.org/) -->

<svg
   version="1.1"
   id="svg1"
   width="32"
   height="32"
   viewBox="0 0 32 31.999999"
   xmlns="http://www.w3.org/2000/svg"
   xmlns:svg="http://www.w3.org/2000/svg">
  <defs
     id="defs1" />
  <g
     id="layer-MC1"
     style="display:inline"
     transform="translate(-918.84095,-125.0756)">
    <g
       id="g67"
       transform="matrix(0.03633559,0,0,0.03633559,891.88691,120.57556)">
      <path
         id="path13"
         d="m 0,0 h 148.366 c 1.638,0 2.967,1.328 2.967,2.967 v 110.928 c 0,2.443 -2.787,3.839 -4.744,2.376 L -1.777,5.343 C -4.062,3.634 -2.853,0 0,0"
         style="fill:#282828;fill-opacity:1;fill-rule:nonzero;stroke:none"
         transform="matrix(1.3333333,0,0,-1.3333333,1084.846,1003.2967)" />
      <path
         id="path14"
         d="m 0,0 h -148.366 c -1.638,0 -2.967,-1.328 -2.967,-2.967 v -110.928 c 0,-2.443 2.787,-3.839 4.744,-2.376 L 1.777,-5.343 C 4.062,-3.634 2.853,0 0,0"
         style="fill:#2e2e2e;fill-opacity:1;fill-rule:nonzero;stroke:none"
         transform="matrix(1.3333333,0,0,-1.3333333,1279.4501,832.87347)" />
      <path
         id="path15"
         d="m 0,0 76.357,41.207 39.107,-341.713 z"
         style="fill:#cc9600;fill-opacity:1;fill-rule:nonzero;stroke:none"
         transform="matrix(1.3333333,0,0,-1.3333333,918.84133,417.6072)" />
      <path
         id="path16"
         d="m 0,0 -59.306,-174.802 76.357,41.207 z"
         style="fill:#edbb2f;fill-opacity:1;fill-rule:nonzero;stroke:none"
         transform="matrix(1.3333333,0,0,-1.3333333,997.9156,184.53813)" />
      <path
         id="path17"
         d="M 0,0 -122.017,-61.69 -139.068,71.905 Z"
         style="fill:#cc9600;fill-opacity:1;fill-rule:nonzero;stroke:none"
         transform="matrix(1.3333333,0,0,-1.3333333,1183.3401,280.412)" />
      <path
         id="path18"
         d="M 0,0 16.465,135.545 -121.138,63.64 Z"
         style="fill:#f4c43d;fill-opacity:1;fill-rule:nonzero;stroke:none"
         transform="matrix(1.3333333,0,0,-1.3333333,1344.8581,365.26493)" />
      <path
         id="path19"
         d="M 0,0 -139.068,-44.597 H 137.603 Z"
         style="fill:#ffda65;fill-opacity:1;fill-rule:nonzero;stroke:none"
         transform="matrix(1.3333333,0,0,-1.3333333,1183.3401,125.0756)" />
      <path
         id="path20"
         d="m 0,0 -75.448,40.156 16.465,135.545 z"
         style="fill:#ffda65;fill-opacity:1;fill-rule:nonzero;stroke:none"
         transform="matrix(1.3333333,0,0,-1.3333333,1445.4549,418.80573)" />
      <path
         id="path21"
         d="M 0,0 -119.284,-299.608 -75.448,40.156 Z"
         style="fill:#ffd45a;fill-opacity:1;fill-rule:nonzero;stroke:none"
         transform="matrix(1.3333333,0,0,-1.3333333,1445.4549,418.80573)" />
      <path
         id="path22"
         d="m 0,0 42.072,20.1 c 2.718,0.817 5.244,-1.734 4.4,-4.443 l -64.585,-207.425 c -0.271,-0.868 -1.547,-0.701 -1.584,0.208 l -0.97,135.76 c -0.064,1.58 -1.583,2.687 -3.107,2.265 L -61.226,-67.78 c -2.568,-0.711 -4.972,1.562 -4.405,4.166 l 48.551,222.905 c 0.2,0.919 1.542,0.817 1.6,-0.122 L -3.156,2.199 C -3.058,0.62 -1.515,-0.455 0,0 m 45.961,27.524 c 3.481,0.271 5.442,-1.011 6.474,-2.129 2.301,-2.493 1.825,-5.996 1.763,-6.387 -0.195,-1.231 -1.258,-2.11 -2.466,-2.11 -0.13,0 -0.262,0.01 -0.394,0.031 -1.356,0.215 -2.285,1.483 -2.082,2.839 0.053,0.393 0.072,1.634 -0.504,2.246 -0.515,0.547 -1.593,0.585 -2.409,0.524 -1.367,-0.109 -2.578,0.925 -2.684,2.302 -0.106,1.376 0.925,2.578 2.302,2.684 M 45.203,-20.503 35.127,-52.865 c -0.334,-1.071 -1.322,-1.757 -2.387,-1.757 -0.246,0 -0.496,0.037 -0.744,0.114 -1.318,0.41 -2.054,1.811 -1.643,3.13 l 10.076,32.361 c 0.411,1.318 1.815,2.052 3.13,1.644 1.319,-0.411 2.054,-1.812 1.644,-3.13 m -27.357,-88.378 -20.152,-64.723 c -0.334,-1.071 -1.322,-1.758 -2.387,-1.758 -0.246,0 -0.496,0.037 -0.744,0.115 -1.318,0.41 -2.054,1.811 -1.644,3.129 l 20.153,64.723 c 0.411,1.319 1.814,2.052 3.13,1.644 1.319,-0.41 2.055,-1.812 1.644,-3.13 m -82.062,33.327 c -0.467,-0.054 -0.907,-0.079 -1.322,-0.079 -2.67,0 -4.299,1.026 -5.229,1.959 -2.394,2.404 -2.052,5.923 -2.005,6.315 0.163,1.371 1.4,2.349 2.779,2.187 1.364,-0.163 2.339,-1.395 2.188,-2.758 -0.037,-0.395 -0.009,-1.636 0.59,-2.225 0.537,-0.527 1.618,-0.525 2.427,-0.432 1.369,0.168 2.61,-0.826 2.769,-2.198 0.158,-1.371 -0.826,-2.611 -2.197,-2.769 m -1.209,60.782 14.318,65.737 c 0.294,1.349 1.628,2.204 2.975,1.911 1.349,-0.294 2.205,-1.626 1.911,-2.975 l -14.318,-65.738 c -0.255,-1.169 -1.29,-1.968 -2.441,-1.968 -0.176,0 -0.355,0.019 -0.534,0.058 -1.35,0.294 -2.205,1.626 -1.911,2.975 m 19.047,87.446 9.59,44.028 c 0.293,1.349 1.622,2.207 2.975,1.911 1.349,-0.294 2.204,-1.626 1.91,-2.975 L -41.492,71.61 c -0.255,-1.17 -1.291,-1.969 -2.441,-1.969 -0.176,0 -0.355,0.019 -0.535,0.058 -1.349,0.294 -2.204,1.626 -1.91,2.975 m 23.135,105.535 -107.603,-54.402 39.107,-341.713 h 64.78 95.433 L 112.31,121.858 -8.828,185.497 Z"
         style="fill:#eab215;fill-opacity:1;fill-rule:nonzero;stroke:none"
         transform="matrix(1.3333333,0,0,-1.3333333,1195.1111,527.74173)" />
      <path
         id="path23"
         d="m 0,0 h -276.672 l 139.069,-71.905 z"
         style="fill:#eab41c;fill-opacity:1;fill-rule:nonzero;stroke:none"
         transform="matrix(1.3333333,0,0,-1.3333333,1366.8113,184.53813)" />
    </g>
  </g>
  <g
     id="layer-MC3"
     style="display:none"
     transform="translate(-918.84095,-125.0756)">
    <path
       id="path57"
       d="M 0,0 H 32.419 L 151.702,299.608 92.72,475.308 -44.884,519.905 -182.487,475.308 -241.47,299.608 -122.186,0 h 32.419"
       style="fill:none;stroke:#2e2e2e;stroke-width:25;stroke-linecap:round;stroke-linejoin:round;stroke-miterlimit:10;stroke-dasharray:none;stroke-opacity:1"
       transform="matrix(1.3333333,0,0,-1.3333333,842.7052,830.92907)" />
  </g>
</svg>
