<svg width="32" height="32" version="1.1" viewBox="0 0 8.4667 8.4667" xmlns="http://www.w3.org/2000/svg">
 <g>
  <g transform="matrix(.58149 0 0 .58149 20.883 -18.236)" fill="#2e2e2e">
   <path d="m-26.868 43.091h-3.4799v2.6018z"/>
   <path d="m-30.348 45.785h3.5698v-2.6677z"/>
  </g>
  <path d="m3.2127 6.7393h2.1427l0.51943-4.2426-1.6112-0.85112-1.5905 0.82851z" fill="#f7c41d"/>
  <path d="m1.6341 3.0166 0.97988-0.51288 0.51485 4.0978z" fill="#a88100"/>
  <path d="m5.4204 6.605 0.51343-4.0837 0.98373 0.51276z" fill="#f4c425"/>
  <path d="m2.6016 2.4397-0.96264 0.50302 0.74976-2.2072z" fill="#f4c425"/>
  <path d="m5.9404 2.4509 0.96264 0.50302-0.74976-2.2072z" fill="#ffda65"/>
  <path d="m2.6706 2.4076 1.5092-0.78166-1.7245-0.90523z" fill="#a88100"/>
  <path d="m5.8805 2.4236-1.5462-0.80134 1.7541-0.91017z" fill="#f4c425"/>
  <path d="m2.5084 0.67889h3.4935l-1.7375 0.90794z" fill="#f7c41d"/>
  <path d="m2.5084 0.63255h3.4935l-1.7375-0.56312z" fill="#ffda65"/>
  <path d="m4.0955 6.7388-0.1043-1.2723-0.54867 0.26645c-0.03337 0.016209-0.070608-0.013964-0.060204-0.048755l1.0785-3.9213c0.00699-0.02335 0.042401-0.018526 0.042499 0.00581l0.011858 2.9527 0.58405-0.29664c0.036192-0.018376 0.077097 0.014093 0.066329 0.052364l-0.6364 2.2622z" fill="#ffefca"/>
 </g>
</svg>
