<svg width="108" height="96" viewBox="0 0 108 96" fill="none" xmlns="http://www.w3.org/2000/svg">
<path d="M78.4 2.59006C78.8915 2.59006 79.29 2.19159 79.29 1.70006C79.29 1.20852 78.8915 0.810059 78.4 0.810059C77.9085 0.810059 77.51 1.20852 77.51 1.70006C77.51 2.19159 77.9085 2.59006 78.4 2.59006Z" fill="#575357"/>
<path d="M84.6 64.14C85.0915 64.14 85.49 63.7415 85.49 63.25C85.49 62.7585 85.0915 62.36 84.6 62.36C84.1084 62.36 83.71 62.7585 83.71 63.25C83.71 63.7415 84.1084 64.14 84.6 64.14Z" fill="#CFCFCF"/>
<path d="M72.8 33.65C65.18 33.65 57.44 33.34 50.2 31.33C42.96 29.32 36.6 25.53 30.74 21.1C26.93 18.21 23.45 15.92 18.52 16.27C13.6848 16.5274 9.06045 18.3329 5.33005 21.42C-0.999955 26.93 4.36306e-05 37.12 2.50004 44.28C6.28004 55.08 17.79 62.57 27.57 67.46C38.87 73.1 51.28 76.38 63.73 78.27C74.73 79.93 88.66 81.13 98.11 74C106.8 67.46 109.18 52.51 107.05 42.42C106.535 39.4379 104.949 36.7463 102.59 34.85C96.49 30.39 87.39 33.37 80.53 33.52C78 33.58 75.4 33.64 72.8 33.65Z" fill="#FBE2B5"/>
<path d="M103.02 19.24V23.16" stroke="#575357" stroke-linecap="round" stroke-linejoin="round"/>
<path d="M101.07 21.2H104.98" stroke="#575357" stroke-linecap="round" stroke-linejoin="round"/>
<path d="M54.1801 95.95C72.6098 95.95 87.5501 95.0187 87.5501 93.87C87.5501 92.7212 72.6098 91.79 54.1801 91.79C35.7503 91.79 20.8101 92.7212 20.8101 93.87C20.8101 95.0187 35.7503 95.95 54.1801 95.95Z" fill="#FBE2B5" fill-opacity="0.5"/>
<path d="M91.1887 20.2416L22.099 14.1241C20.0965 13.9468 18.3294 15.4264 18.1521 17.4289L13.8506 66.0089C13.6733 68.0113 15.1529 69.7784 17.1554 69.9557L86.2451 76.0732C88.2476 76.2505 90.0147 74.7709 90.192 72.7684L94.4934 24.1885C94.6707 22.186 93.1911 20.4189 91.1887 20.2416Z" fill="#FFFEFD" stroke="#575357" stroke-linecap="round" stroke-linejoin="round"/>
<path d="M60.5011 51.5547L47.2231 50.379C46.5244 50.3171 45.9079 50.8334 45.846 51.532L45.5364 55.0283C45.4746 55.727 45.9908 56.3435 46.6895 56.4054L59.9675 57.5811C60.6662 57.643 61.2827 57.1267 61.3446 56.4281L61.6541 52.9317C61.716 52.2331 61.1998 51.6165 60.5011 51.5547Z" fill="#878787"/>
<path d="M65.7601 16.87C65.7601 19.1603 65.0809 21.3991 63.8085 23.3035C62.5361 25.2078 60.7275 26.692 58.6116 27.5685C56.4956 28.4449 54.1673 28.6743 51.921 28.2274C49.6747 27.7806 47.6113 26.6777 45.9918 25.0582C44.3723 23.4388 43.2694 21.3754 42.8226 19.1291C42.3758 16.8828 42.6051 14.5544 43.4816 12.4385C44.358 10.3225 45.8423 8.51396 47.7466 7.24153C49.6509 5.96911 51.8898 5.28995 54.1801 5.28995C55.703 5.282 57.2124 5.5761 58.621 6.15523C60.0295 6.73436 61.3092 7.58703 62.3861 8.66392C63.463 9.74081 64.3157 11.0205 64.8948 12.4291C65.474 13.8376 65.7681 15.347 65.7601 16.87Z" fill="#FFFEFD" stroke="#575357" stroke-linecap="round" stroke-linejoin="round"/>
<path d="M61 26C60.1348 26.9312 59.2083 26.9875 58 27.5C56.7917 28.0125 55.3301 28 54 28C52.6699 28 51.3555 27.7346 50.1472 27.2221C48.9389 26.7096 47.8652 26.4312 47 25.5C47.1199 23.8641 47.9095 21.8622 49.209 20.7425C50.5086 19.6228 52.2211 19 54 19C55.7789 19 57.4914 19.6228 58.791 20.7425C60.0905 21.8622 60.8801 24.3641 61 26Z" fill="#878787"/>
<path d="M54.5 18C56.9853 18 59 15.9853 59 13.5C59 11.0147 56.9853 9 54.5 9C52.0147 9 50 11.0147 50 13.5C50 15.9853 52.0147 18 54.5 18Z" fill="#878787"/>
<path d="M74.4504 40.7461L35.3833 37.2869C34.47 37.2061 33.6642 37.8808 33.5833 38.794L33.3425 41.5134C33.2617 42.4266 33.9364 43.2325 34.8497 43.3133L73.9168 46.7725C74.83 46.8534 75.6359 46.1786 75.7168 45.2654L75.9575 42.546C76.0384 41.6328 75.3636 40.8269 74.4504 40.7461Z" fill="white" stroke="#575357" stroke-linecap="round" stroke-linejoin="round"/>
<path d="M44.25 42.8899C45.2 42.8899 45.97 42.1199 45.97 41.17C45.97 40.22 45.2 39.45 44.25 39.45C43.3001 39.45 42.53 40.22 42.53 41.17C42.53 42.1199 43.3001 42.8899 44.25 42.8899Z" fill="#878787"/>
<path d="M51.21 43.4999C52.1599 43.4999 52.93 42.7299 52.93 41.7799C52.93 40.83 52.1599 40.0599 51.21 40.0599C50.2601 40.0599 49.49 40.83 49.49 41.7799C49.49 42.7299 50.2601 43.4999 51.21 43.4999Z" fill="#878787"/>
<path d="M58.17 44.1199C59.1199 44.1199 59.89 43.3499 59.89 42.3999C59.89 41.45 59.1199 40.6799 58.17 40.6799C57.22 40.6799 56.45 41.45 56.45 42.3999C56.45 43.3499 57.22 44.1199 58.17 44.1199Z" fill="#878787"/>
<path d="M65.1299 44.7299C66.0798 44.7299 66.8499 43.9598 66.8499 43.0099C66.8499 42.06 66.0798 41.2899 65.1299 41.2899C64.18 41.2899 63.4099 42.06 63.4099 43.0099C63.4099 43.9598 64.18 44.7299 65.1299 44.7299Z" fill="#878787"/>
<path d="M65.7601 16.87C65.7601 19.1603 65.0809 21.3991 63.8085 23.3035C62.5361 25.2078 60.7275 26.692 58.6116 27.5685C56.4956 28.4449 54.1673 28.6743 51.921 28.2274C49.6747 27.7806 47.6113 26.6777 45.9918 25.0582C44.3723 23.4388 43.2694 21.3754 42.8226 19.1291C42.3758 16.8828 42.6051 14.5544 43.4816 12.4385C44.358 10.3225 45.8423 8.51396 47.7466 7.24153C49.6509 5.96911 51.8898 5.28995 54.1801 5.28995C55.703 5.282 57.2124 5.5761 58.621 6.15523C60.0295 6.73436 61.3092 7.58703 62.3861 8.66392C63.463 9.74081 64.3157 11.0205 64.8948 12.4291C65.474 13.8376 65.7681 15.347 65.7601 16.87Z" stroke="#575357" stroke-linecap="round" stroke-linejoin="round"/>
</svg>
