<svg width="108" height="96" viewBox="0 0 108 96" fill="none" xmlns="http://www.w3.org/2000/svg">
<path d="M78.4 2.59006C78.8915 2.59006 79.29 2.19159 79.29 1.70006C79.29 1.20852 78.8915 0.810059 78.4 0.810059C77.9085 0.810059 77.51 1.20852 77.51 1.70006C77.51 2.19159 77.9085 2.59006 78.4 2.59006Z" fill="#575357"/>
<path d="M84.6 64.14C85.0915 64.14 85.49 63.7415 85.49 63.25C85.49 62.7585 85.0915 62.36 84.6 62.36C84.1084 62.36 83.71 62.7585 83.71 63.25C83.71 63.7415 84.1084 64.14 84.6 64.14Z" fill="#CFCFCF"/>
<path d="M72.8 33.65C65.18 33.65 57.44 33.34 50.2 31.33C42.96 29.32 36.6 25.53 30.74 21.1C26.93 18.21 23.45 15.92 18.52 16.27C13.6848 16.5274 9.06045 18.3329 5.33005 21.42C-0.999955 26.93 4.36306e-05 37.12 2.50004 44.28C6.28004 55.08 17.79 62.57 27.57 67.46C38.87 73.1 51.28 76.38 63.73 78.27C74.73 79.93 88.66 81.13 98.11 74C106.8 67.46 109.18 52.51 107.05 42.42C106.535 39.4379 104.949 36.7463 102.59 34.85C96.49 30.39 87.39 33.37 80.53 33.52C78 33.58 75.4 33.64 72.8 33.65Z" fill="#FBE2B5"/>
<path d="M103.02 19.24V23.16" stroke="#575357" stroke-linecap="round" stroke-linejoin="round"/>
<path d="M101.07 21.2H104.98" stroke="#575357" stroke-linecap="round" stroke-linejoin="round"/>
<path d="M54.1801 95.95C72.6098 95.95 87.5501 95.0187 87.5501 93.87C87.5501 92.7212 72.6098 91.79 54.1801 91.79C35.7503 91.79 20.8101 92.7212 20.8101 93.87C20.8101 95.0187 35.7503 95.95 54.1801 95.95Z" fill="#FBE2B5" fill-opacity="0.5"/>
<path d="M91.1887 20.2416L22.099 14.1241C20.0965 13.9468 18.3294 15.4264 18.1521 17.4289L13.8506 66.0089C13.6733 68.0113 15.1529 69.7784 17.1554 69.9557L86.2451 76.0732C88.2476 76.2505 90.0147 74.7709 90.192 72.7684L94.4934 24.1885C94.6707 22.186 93.1911 20.4189 91.1887 20.2416Z" fill="#FFFEFD" stroke="#575357" stroke-linecap="round" stroke-linejoin="round"/>
<path d="M74.4927 38.0035L35.4255 34.5444C34.5123 34.4635 33.7064 35.1383 33.6256 36.0515L33.3848 38.7708C33.3039 39.6841 33.9787 40.4899 34.8919 40.5708L73.9591 44.0299C74.8723 44.1108 75.6781 43.436 75.759 42.5228L75.9998 39.8035C76.0806 38.8902 75.4059 38.0844 74.4927 38.0035Z" fill="white" stroke="#575357" stroke-linecap="round" stroke-linejoin="round"/>
<path d="M59.5011 60.5547L46.2231 59.379C45.5244 59.3171 44.9079 59.8334 44.846 60.532L44.5364 64.0283C44.4746 64.727 44.9908 65.3435 45.6895 65.4054L58.9675 66.5811C59.6662 66.643 60.2827 66.1267 60.3446 65.4281L60.6541 61.9317C60.716 61.2331 60.1998 60.6165 59.5011 60.5547Z" fill="#878787"/>
<path d="M65.7601 16.87C65.7601 19.1603 65.0809 21.3991 63.8085 23.3035C62.5361 25.2078 60.7275 26.692 58.6116 27.5685C56.4956 28.4449 54.1673 28.6743 51.921 28.2274C49.6747 27.7806 47.6113 26.6777 45.9918 25.0582C44.3723 23.4388 43.2694 21.3754 42.8226 19.1291C42.3758 16.8828 42.6051 14.5544 43.4816 12.4385C44.358 10.3225 45.8423 8.51396 47.7466 7.24153C49.6509 5.96911 51.8898 5.28995 54.1801 5.28995C55.703 5.282 57.2124 5.5761 58.621 6.15523C60.0295 6.73436 61.3092 7.58703 62.3861 8.66392C63.463 9.74081 64.3157 11.0205 64.8948 12.4291C65.474 13.8376 65.7681 15.347 65.7601 16.87Z" fill="#FFFEFD" stroke="#575357" stroke-linecap="round" stroke-linejoin="round"/>
<path d="M61 26C60.1348 26.9312 59.2083 26.9875 58 27.5C56.7917 28.0125 55.3301 28 54 28C52.6699 28 51.3555 27.7346 50.1472 27.2221C48.9389 26.7096 47.8652 26.4312 47 25.5C47.1199 23.8641 47.9095 21.8622 49.209 20.7425C50.5086 19.6228 52.2211 19 54 19C55.7789 19 57.4914 19.6228 58.791 20.7425C60.0905 21.8622 60.8801 24.3641 61 26Z" fill="#878787"/>
<path d="M54.5 18C56.9853 18 59 15.9853 59 13.5C59 11.0147 56.9853 9 54.5 9C52.0147 9 50 11.0147 50 13.5C50 15.9853 52.0147 18 54.5 18Z" fill="#878787"/>
<path d="M73.4504 49.7461L34.3833 46.2869C33.47 46.2061 32.6642 46.8808 32.5833 47.794L32.3425 50.5134C32.2617 51.4266 32.9364 52.2325 33.8497 52.3133L72.9168 55.7725C73.83 55.8534 74.6359 55.1786 74.7168 54.2654L74.9575 51.546C75.0384 50.6328 74.3636 49.8269 73.4504 49.7461Z" fill="white" stroke="#575357" stroke-linecap="round" stroke-linejoin="round"/>
<path d="M43.25 51.8899C44.2 51.8899 44.97 51.1199 44.97 50.17C44.97 49.22 44.2 48.45 43.25 48.45C42.3001 48.45 41.53 49.22 41.53 50.17C41.53 51.1199 42.3001 51.8899 43.25 51.8899Z" fill="#878787"/>
<path d="M50.21 52.4999C51.1599 52.4999 51.93 51.7299 51.93 50.7799C51.93 49.83 51.1599 49.0599 50.21 49.0599C49.2601 49.0599 48.49 49.83 48.49 50.7799C48.49 51.7299 49.2601 52.4999 50.21 52.4999Z" fill="#878787"/>
<path d="M57.17 53.1199C58.1199 53.1199 58.89 52.3499 58.89 51.3999C58.89 50.45 58.1199 49.6799 57.17 49.6799C56.22 49.6799 55.45 50.45 55.45 51.3999C55.45 52.3499 56.22 53.1199 57.17 53.1199Z" fill="#878787"/>
<path d="M64.1299 53.7299C65.0798 53.7299 65.8499 52.9598 65.8499 52.0099C65.8499 51.06 65.0798 50.2899 64.1299 50.2899C63.18 50.2899 62.4099 51.06 62.4099 52.0099C62.4099 52.9598 63.18 53.7299 64.1299 53.7299Z" fill="#878787"/>
<path d="M65.7601 16.87C65.7601 19.1603 65.0809 21.3991 63.8085 23.3035C62.5361 25.2078 60.7275 26.692 58.6116 27.5685C56.4956 28.4449 54.1673 28.6743 51.921 28.2274C49.6747 27.7806 47.6113 26.6777 45.9918 25.0582C44.3723 23.4388 43.2694 21.3754 42.8226 19.1291C42.3758 16.8828 42.6051 14.5544 43.4816 12.4385C44.358 10.3225 45.8423 8.51396 47.7466 7.24153C49.6509 5.96911 51.8898 5.28995 54.1801 5.28995C55.703 5.282 57.2124 5.5761 58.621 6.15523C60.0295 6.73436 61.3092 7.58703 62.3861 8.66392C63.463 9.74081 64.3157 11.0205 64.8948 12.4291C65.474 13.8376 65.7681 15.347 65.7601 16.87Z" stroke="#575357" stroke-linecap="round" stroke-linejoin="round"/>
</svg>
