<svg width="119" height="108" viewBox="0 0 119 108" fill="none" xmlns="http://www.w3.org/2000/svg">
<path d="M79.66 39.1699C71.29 39.1699 62.7699 38.8299 54.7999 36.6099C46.9799 34.4399 39.7999 30.2299 33.3999 25.3599C29.2099 22.1899 25.3999 19.6599 19.9599 20.0399C14.638 20.3279 9.54874 22.3153 5.43995 25.7099C-1.48005 31.7699 -0.440053 42.9999 2.32995 50.8599C6.48995 62.7299 19.1499 70.9999 29.9099 76.3499C42.3399 82.5599 55.9999 86.1699 69.6899 88.2399C81.6899 90.0699 97.1099 91.3899 107.51 83.5599C117.06 76.3499 119.68 59.9099 117.34 48.8099C116.772 45.5308 115.026 42.572 112.43 40.49C105.72 35.58 95.7099 38.8599 88.1699 39.0199C85.3699 39.0799 82.52 39.1499 79.66 39.1699Z" fill="#FBE2B5"/>
<path d="M59.5801 107.7C79.8545 107.7 96.2901 106.675 96.2901 105.41C96.2901 104.145 79.8545 103.12 59.5801 103.12C39.3057 103.12 22.8701 104.145 22.8701 105.41C22.8701 106.675 39.3057 107.7 59.5801 107.7Z" fill="#FBE2B5" fill-opacity="0.5"/>
<path d="M7.78003 17.12L20.78 16.02C22.4011 15.878 24.0218 16.2973 25.3707 17.2075C26.7196 18.1177 27.7149 19.4636 28.19 21.02L40.65 62.72L38.21 67.09C37.5833 68.216 37.2739 69.4909 37.3149 70.7789C37.3558 72.0669 37.7455 73.3196 38.4424 74.4035C39.1394 75.4874 40.1174 76.3619 41.2723 76.9336C42.4271 77.5053 43.7155 77.7529 45 77.65L94.9 73.41" stroke="#575357" stroke-linecap="round" stroke-linejoin="round"/>
<path d="M30.05 27.35L88.0501 22.43C88.6214 22.381 89.1965 22.4613 89.7325 22.6649C90.2686 22.8686 90.752 23.1903 91.1468 23.6062C91.5416 24.0221 91.8376 24.5216 92.0131 25.0675C92.1885 25.6135 92.2387 26.1919 92.1601 26.76L88.2301 55.13C88.1107 55.9811 87.7085 56.7674 87.0882 57.3624C86.4679 57.9573 85.6655 58.3263 84.81 58.41L40.6501 62.72L30.05 27.35Z" fill="#FFFEFD" stroke="#575357" stroke-linecap="round" stroke-linejoin="round"/>
<path d="M50.5501 87.21C53.1514 87.21 55.2601 85.1013 55.2601 82.5C55.2601 79.8988 53.1514 77.79 50.5501 77.79C47.9488 77.79 45.8401 79.8988 45.8401 82.5C45.8401 85.1013 47.9488 87.21 50.5501 87.21Z" fill="white" stroke="#575357" stroke-linecap="round" stroke-linejoin="round"/>
<path d="M83.3499 84.43C85.9512 84.43 88.0599 82.3213 88.0599 79.72C88.0599 77.1187 85.9512 75.01 83.3499 75.01C80.7486 75.01 78.6399 77.1187 78.6399 79.72C78.6399 82.3213 80.7486 84.43 83.3499 84.43Z" fill="white" stroke="#575357" stroke-linecap="round" stroke-linejoin="round"/>
<path d="M18.0746 14.8939L5.8186 15.9339C4.7565 16.024 3.96856 16.958 4.05868 18.0201C4.1488 19.0822 5.08286 19.8702 6.14495 19.78L18.4009 18.7401C19.463 18.65 20.2509 17.7159 20.1608 16.6538C20.0707 15.5918 19.1366 14.8038 18.0746 14.8939Z" fill="#575357"/>
<path d="M54.47 49.26C54.7091 47.4349 55.565 45.7464 56.8957 44.4746C58.2263 43.2029 59.9517 42.4242 61.7857 42.2677C63.6197 42.1113 65.4521 42.5865 66.9789 43.6146C68.5057 44.6427 69.6352 46.1618 70.18 47.92" stroke="#575357" stroke-linecap="round" stroke-linejoin="round"/>
<path d="M70.3099 38.47C70.9285 38.47 71.4299 37.9685 71.4299 37.35C71.4299 36.7314 70.9285 36.23 70.3099 36.23C69.6914 36.23 69.1899 36.7314 69.1899 37.35C69.1899 37.9685 69.6914 38.47 70.3099 38.47Z" fill="#575357"/>
<path d="M52.5599 39.97C53.1785 39.97 53.6799 39.4685 53.6799 38.85C53.6799 38.2314 53.1785 37.73 52.5599 37.73C51.9414 37.73 51.4399 38.2314 51.4399 38.85C51.4399 39.4685 51.9414 39.97 52.5599 39.97Z" fill="#575357"/>
<path d="M21.01 81.11V85.42" stroke="#575357" stroke-linecap="round" stroke-linejoin="round"/>
<path d="M18.8601 83.26H23.1601" stroke="#575357" stroke-linecap="round" stroke-linejoin="round"/>
<path d="M89.72 0.98999V5.28999" stroke="#575357" stroke-linecap="round" stroke-linejoin="round"/>
<path d="M87.5701 3.14001H91.8701" stroke="#575357" stroke-linecap="round" stroke-linejoin="round"/>
<path d="M38.8101 13.84V18.14" stroke="#575357" stroke-linecap="round" stroke-linejoin="round"/>
<path d="M36.6499 15.99H40.9599" stroke="#575357" stroke-linecap="round" stroke-linejoin="round"/>
<path d="M100.45 29.65C101.013 29.65 101.47 29.1933 101.47 28.63C101.47 28.0667 101.013 27.61 100.45 27.61C99.8866 27.61 99.4299 28.0667 99.4299 28.63C99.4299 29.1933 99.8866 29.65 100.45 29.65Z" fill="#575357" stroke="#575357" stroke-linecap="round" stroke-linejoin="round"/>
<path d="M62.3301 20.48C62.8713 20.48 63.3101 20.0413 63.3101 19.5C63.3101 18.9588 62.8713 18.52 62.3301 18.52C61.7889 18.52 61.3501 18.9588 61.3501 19.5C61.3501 20.0413 61.7889 20.48 62.3301 20.48Z" fill="#575357"/>
<path d="M68.9099 91.6C69.4512 91.6 69.8899 91.1613 69.8899 90.62C69.8899 90.0788 69.4512 89.64 68.9099 89.64C68.3687 89.64 67.9299 90.0788 67.9299 90.62C67.9299 91.1613 68.3687 91.6 68.9099 91.6Z" fill="#575357"/>
</svg>
