<svg width="108" height="96" viewBox="0 0 108 96" fill="none" xmlns="http://www.w3.org/2000/svg">
<path d="M78.4 2.59006C78.8915 2.59006 79.29 2.19159 79.29 1.70006C79.29 1.20852 78.8915 0.810059 78.4 0.810059C77.9085 0.810059 77.51 1.20852 77.51 1.70006C77.51 2.19159 77.9085 2.59006 78.4 2.59006Z" fill="#575357"/>
<path d="M84.6 64.14C85.0915 64.14 85.49 63.7415 85.49 63.25C85.49 62.7585 85.0915 62.36 84.6 62.36C84.1084 62.36 83.71 62.7585 83.71 63.25C83.71 63.7415 84.1084 64.14 84.6 64.14Z" fill="#CFCFCF"/>
<path d="M72.8 33.65C65.18 33.65 57.44 33.34 50.2 31.33C42.96 29.32 36.6 25.53 30.74 21.1C26.93 18.21 23.45 15.92 18.52 16.27C13.6848 16.5274 9.06045 18.3329 5.33005 21.42C-0.999955 26.93 4.36306e-05 37.12 2.50004 44.28C6.28004 55.08 17.79 62.57 27.57 67.46C38.87 73.1 51.28 76.38 63.73 78.27C74.73 79.93 88.66 81.13 98.11 74C106.8 67.46 109.18 52.51 107.05 42.42C106.535 39.4379 104.949 36.7463 102.59 34.85C96.49 30.39 87.39 33.37 80.53 33.52C78 33.58 75.4 33.64 72.8 33.65Z" fill="#FBE2B5"/>
<path d="M103.02 19.24V23.16" stroke="#575357" stroke-linecap="round" stroke-linejoin="round"/>
<path d="M101.07 21.2H104.98" stroke="#575357" stroke-linecap="round" stroke-linejoin="round"/>
<path d="M54.1801 95.95C72.6098 95.95 87.5501 95.0187 87.5501 93.87C87.5501 92.7212 72.6098 91.79 54.1801 91.79C35.7503 91.79 20.8101 92.7212 20.8101 93.87C20.8101 95.0187 35.7503 95.95 54.1801 95.95Z" fill="#FBE2B5" fill-opacity="0.5"/>
<path d="M91.1887 20.2416L22.099 14.1241C20.0965 13.9468 18.3294 15.4264 18.1521 17.4289L13.8506 66.0089C13.6733 68.0113 15.1529 69.7784 17.1554 69.9557L86.2451 76.0732C88.2476 76.2505 90.0147 74.7709 90.192 72.7684L94.4934 24.1885C94.6707 22.186 93.1911 20.4189 91.1887 20.2416Z" fill="#FFFEFD" stroke="#575357" stroke-linecap="round" stroke-linejoin="round"/>
<path d="M75.0583 35.6056L35.9912 32.1464C35.078 32.0656 34.2721 32.7403 34.1912 33.6535L33.9505 36.3729C33.8696 37.2861 34.5444 38.092 35.4576 38.1728L74.5247 41.632C75.438 41.7128 76.2438 41.0381 76.3247 40.1249L76.5655 37.4055C76.6463 36.4923 75.9716 35.6864 75.0583 35.6056Z" fill="white" stroke="#575357" stroke-linecap="round" stroke-linejoin="round"/>
<path d="M73.2544 55.6056L34.1872 52.1464C33.274 52.0656 32.4681 52.7403 32.3873 53.6535L32.1465 56.3729C32.0656 57.2861 32.7404 58.092 33.6536 58.1728L72.7208 61.632C73.634 61.7128 74.4399 61.0381 74.5207 60.1249L74.7615 57.4055C74.8424 56.4923 74.1676 55.6864 73.2544 55.6056Z" fill="white" stroke="#575357" stroke-linecap="round" stroke-linejoin="round"/>
<path d="M59.0768 65.2877L45.7987 64.112C45.1001 64.0501 44.4835 64.5664 44.4217 65.2651L44.1121 68.7614C44.0502 69.46 44.5665 70.0766 45.2651 70.1384L58.5432 71.3141C59.2419 71.376 59.8584 70.8598 59.9202 70.1611L60.2298 66.6648C60.2917 65.9661 59.7755 65.3496 59.0768 65.2877Z" fill="#878787"/>
<path d="M65.7601 16.87C65.7601 19.1603 65.0809 21.3991 63.8085 23.3035C62.5361 25.2078 60.7275 26.692 58.6116 27.5685C56.4956 28.4449 54.1673 28.6743 51.921 28.2274C49.6747 27.7806 47.6113 26.6777 45.9918 25.0582C44.3723 23.4388 43.2694 21.3754 42.8226 19.1291C42.3758 16.8828 42.6051 14.5544 43.4816 12.4385C44.358 10.3225 45.8423 8.51396 47.7466 7.24153C49.6509 5.96911 51.8898 5.28995 54.1801 5.28995C55.703 5.282 57.2124 5.5761 58.621 6.15523C60.0295 6.73436 61.3092 7.58703 62.3861 8.66392C63.463 9.74081 64.3157 11.0205 64.8948 12.4291C65.474 13.8376 65.7681 15.347 65.7601 16.87Z" fill="#FFFEFD" stroke="#575357" stroke-linecap="round" stroke-linejoin="round"/>
<path d="M47 25.3608C47.618 26.1885 48.3849 26.853 49.248 27.3086C50.1111 27.7641 51.0499 28 51.9999 28C52 27.3086 51.9999 27.5695 52 27.0591C51.9999 26.4059 51.9999 25.6963 51.9999 24.9778C51.9999 23.4101 51.9999 22.8133 51.9999 21.8335C51.9999 20.8537 51.9999 20.8537 51.9999 20C50.7293 20 49.5061 20.5536 48.5779 21.5489C47.6496 22.5441 47.0856 23.9067 47 25.3608Z" fill="#878787"/>
<path d="M54.5 19C56.9853 19 59 16.9853 59 14.5C59 12.0147 56.9853 10 54.5 10C52.0147 10 50 12.0147 50 14.5C50 16.9853 52.0147 19 54.5 19Z" fill="#878787"/>
<path d="M74.2964 45.6056L35.2292 42.1464C34.316 42.0656 33.5101 42.7403 33.4293 43.6535L33.1885 46.3729C33.1076 47.2861 33.7824 48.092 34.6956 48.1728L73.7628 51.632C74.676 51.7128 75.4818 51.0381 75.5627 50.1249L75.8035 47.4055C75.8844 46.4923 75.2096 45.6864 74.2964 45.6056Z" fill="white" stroke="#575357" stroke-linecap="round" stroke-linejoin="round"/>
<path d="M42.72 57.69C43.6699 57.69 44.44 56.9199 44.44 55.97C44.44 55.0201 43.6699 54.25 42.72 54.25C41.7701 54.25 41 55.0201 41 55.97C41 56.9199 41.7701 57.69 42.72 57.69Z" fill="#878787"/>
<path d="M49.68 58.3C50.6299 58.3 51.4 57.5299 51.4 56.58C51.4 55.6301 50.6299 54.86 49.68 54.86C48.73 54.86 47.96 55.6301 47.96 56.58C47.96 57.5299 48.73 58.3 49.68 58.3Z" fill="#878787"/>
<path d="M56.6399 58.92C57.5899 58.92 58.3599 58.1499 58.3599 57.2C58.3599 56.2501 57.5899 55.48 56.6399 55.48C55.69 55.48 54.9199 56.2501 54.9199 57.2C54.9199 58.1499 55.69 58.92 56.6399 58.92Z" fill="#878787"/>
<path d="M63.5999 59.53C64.5498 59.53 65.3199 58.7599 65.3199 57.81C65.3199 56.86 64.5498 56.09 63.5999 56.09C62.6499 56.09 61.8799 56.86 61.8799 57.81C61.8799 58.7599 62.6499 59.53 63.5999 59.53Z" fill="#878787"/>
<path d="M65.7601 16.87C65.7601 19.1603 65.0809 21.3991 63.8085 23.3035C62.5361 25.2078 60.7275 26.692 58.6116 27.5685C56.4956 28.4449 54.1673 28.6743 51.921 28.2274C49.6747 27.7806 47.6113 26.6777 45.9918 25.0582C44.3723 23.4388 43.2694 21.3754 42.8226 19.1291C42.3758 16.8828 42.6051 14.5544 43.4816 12.4385C44.358 10.3225 45.8423 8.51396 47.7466 7.24153C49.6509 5.96911 51.8898 5.28995 54.1801 5.28995C55.703 5.282 57.2124 5.5761 58.621 6.15523C60.0295 6.73436 61.3092 7.58703 62.3861 8.66392C63.463 9.74081 64.3157 11.0205 64.8948 12.4291C65.474 13.8376 65.7681 15.347 65.7601 16.87Z" stroke="#575357" stroke-linecap="round" stroke-linejoin="round"/>
<path d="M56 22V26" stroke="#878787" stroke-width="1.5" stroke-linecap="round"/>
<path d="M54 24H58" stroke="#878787" stroke-width="1.5" stroke-linecap="round"/>
</svg>
