<?xml version="1.0" encoding="UTF-8" standalone="no"?>
<!-- Created with Inkscape (http://www.inkscape.org/) -->

<svg
   width="44.5415mm"
   height="45.768032mm"
   viewBox="0 0 44.5415 45.768032"
   version="1.1"
   id="svg1"
   xml:space="preserve"
   sodipodi:docname="website_attributes.svg"
   inkscape:version="1.3.2 (091e20e, 2023-11-25, custom)"
   xmlns:inkscape="http://www.inkscape.org/namespaces/inkscape"
   xmlns:sodipodi="http://sodipodi.sourceforge.net/DTD/sodipodi-0.dtd"
   xmlns="http://www.w3.org/2000/svg"
   xmlns:svg="http://www.w3.org/2000/svg"><sodipodi:namedview
     id="namedview1"
     pagecolor="#ffffff"
     bordercolor="#666666"
     borderopacity="1.0"
     inkscape:showpageshadow="2"
     inkscape:pageopacity="0.0"
     inkscape:pagecheckerboard="0"
     inkscape:deskcolor="#d1d1d1"
     inkscape:document-units="mm"
     inkscape:zoom="1"
     inkscape:cx="327.5"
     inkscape:cy="564.5"
     inkscape:window-width="2560"
     inkscape:window-height="1377"
     inkscape:window-x="-8"
     inkscape:window-y="-8"
     inkscape:window-maximized="1"
     inkscape:current-layer="layer2" /><defs
     id="defs1" /><g
     inkscape:groupmode="layer"
     id="layer2"
     inkscape:label="Layer 2"
     transform="translate(-82.72925,-96.758527)"><g
       id="g70"
       inkscape:label="mission"
       transform="matrix(2.0607894,0,0,2.0607894,-39.135564,51.781253)"><path
         id="path63"
         style="fill:#ffad01;fill-opacity:1;stroke:#575357;stroke-width:0.5;stroke-linecap:butt;stroke-linejoin:round;stroke-dasharray:none;stroke-opacity:1"
         d="m 63.537854,36.891972 c 0,0 -1.690317,1.581425 -1.992542,5.204923 -0.009,0.127404 -0.0081,0.125284 0.11333,0.105783 3.593955,-0.550859 5.055495,-2.345936 5.055495,-2.345936 l -1.592236,-1.477999 z"
         sodipodi:nodetypes="cccccc" /><g
         id="g69"><g
           id="g65"
           transform="rotate(43.027372,195.59212,157.96277)"
           style="fill:none;fill-opacity:1"><path
             style="fill:none;fill-opacity:1;stroke:#575357;stroke-width:0.5;stroke-linecap:round;stroke-linejoin:miter;stroke-dasharray:none;stroke-opacity:1"
             d="m 15.079588,158.78307 c 0,0 -0.862672,-1.76139 -1.372526,-4.0845 -0.357126,-1.62722 -2.728516,4.48138 -2.497005,5.3082 0.23151,0.82682 4.142382,-0.81855 3.869531,-1.2237 z"
             id="path64"
             sodipodi:nodetypes="cssc" /><path
             style="fill:none;fill-opacity:1;stroke:#575357;stroke-width:0.5;stroke-linecap:round;stroke-linejoin:miter;stroke-dasharray:none;stroke-opacity:1"
             d="m 22.154169,158.78307 c 0,0 0.862672,-1.76139 1.372526,-4.0845 0.357126,-1.62722 2.728516,4.48138 2.497005,5.3082 -0.23151,0.82682 -4.142382,-0.81855 -3.869531,-1.2237 z"
             id="path65"
             sodipodi:nodetypes="cssc" /></g><g
           id="g68"><g
             id="g67"
             style="fill:none;fill-opacity:1;stroke:#575357;stroke-width:0.5;stroke-dasharray:none;stroke-opacity:1"
             transform="rotate(43.027372,195.61128,157.91416)"><path
               d="m 21.965068,141.01827 h -6.619751 c -3.767954,6.84522 0.639237,17.51882 0.639237,17.51882 h 2.667537 0.0057 2.668054 c 0,0 4.407191,-10.6736 0.639238,-17.51882 z"
               style="fill:none;fill-opacity:1;stroke:#575357;stroke-width:0.5;stroke-linecap:round;stroke-linejoin:round;stroke-dasharray:none;stroke-opacity:1"
               id="path66" /><path
               d="m 18.665527,137.51564 c -0.03431,-0.007 -0.05483,0.0207 -0.05943,0.0207 -1.466883,0.93923 -2.520544,2.13717 -3.260782,3.48196 h 6.619751 c -0.740239,-1.34479 -1.7939,-2.54273 -3.260783,-3.48196 -0.01446,-0.0121 -0.02732,-0.0184 -0.03876,-0.0207 z"
               style="fill:none;fill-opacity:1;stroke:#575357;stroke-width:0.5;stroke-linecap:round;stroke-linejoin:round;stroke-dasharray:none;stroke-opacity:1"
               id="path67" /></g><circle
             style="fill:#d26b65;fill-opacity:1;stroke:#575357;stroke-width:0.5;stroke-linecap:round;stroke-linejoin:round;stroke-dasharray:none;stroke-opacity:1"
             id="circle67"
             cx="73.793564"
             cy="-30.329378"
             r="2.6789064"
             transform="rotate(43.027372)" /></g></g></g></g></svg>
