<?xml version="1.0" encoding="UTF-8" standalone="no"?>
<!-- Created with Inkscape (http://www.inkscape.org/) -->

<svg
   width="43.872345mm"
   height="45.984749mm"
   viewBox="0 0 43.872345 45.984749"
   version="1.1"
   id="svg1"
   xml:space="preserve"
   sodipodi:docname="website_attributes.svg"
   inkscape:version="1.3.2 (091e20e, 2023-11-25, custom)"
   xmlns:inkscape="http://www.inkscape.org/namespaces/inkscape"
   xmlns:sodipodi="http://sodipodi.sourceforge.net/DTD/sodipodi-0.dtd"
   xmlns="http://www.w3.org/2000/svg"
   xmlns:svg="http://www.w3.org/2000/svg"><sodipodi:namedview
     id="namedview1"
     pagecolor="#ffffff"
     bordercolor="#666666"
     borderopacity="1.0"
     inkscape:showpageshadow="2"
     inkscape:pageopacity="0.0"
     inkscape:pagecheckerboard="0"
     inkscape:deskcolor="#d1d1d1"
     inkscape:document-units="mm"
     inkscape:zoom="1"
     inkscape:cx="327.5"
     inkscape:cy="564.5"
     inkscape:window-width="2560"
     inkscape:window-height="1377"
     inkscape:window-x="-8"
     inkscape:window-y="-8"
     inkscape:window-maximized="1"
     inkscape:current-layer="layer2" /><defs
     id="defs1" /><g
     inkscape:groupmode="layer"
     id="layer2"
     inkscape:label="Layer 2"
     transform="translate(-83.063829,-34.616946)"><g
       id="g63"
       inkscape:label="objectives"
       transform="matrix(2.3202445,0,0,2.3202445,22.846152,-20.277875)"><g
         id="g61"><g
           id="g60"><path
             id="path58"
             style="fill:none;stroke:#575357;stroke-width:0.499999;stroke-linecap:round;stroke-opacity:1"
             d="m 43.40936,31.99204 a 8.7785788,8.7785788 0 0 1 0.35096,2.45737 v 0 a 8.7785788,8.7785788 0 0 1 -8.77858,8.77858 8.7785788,8.7785788 0 0 1 -8.77858,-8.77858 8.7785788,8.7785788 0 0 1 8.77858,-8.77858 8.7785788,8.7785788 0 0 1 1.5569,0.13916" /><path
             id="path59"
             style="fill:none;stroke:#575357;stroke-width:0.499999;stroke-linecap:round;stroke-opacity:1"
             d="m 40.43151,32.96045 a 5.649518,5.649518 0 0 1 0.19975,1.48896 v 0 a 5.649518,5.649518 0 0 1 -5.64952,5.64952 5.649518,5.649518 0 0 1 -5.64952,-5.64952 5.649518,5.649518 0 0 1 5.64952,-5.64952 5.649518,5.649518 0 0 1 0.90665,0.0732" /><circle
             style="fill:#d26b65;fill-opacity:1;stroke:none;stroke-width:1.11244;stroke-linecap:round;stroke-linejoin:round;stroke-dasharray:none"
             id="circle59"
             cx="34.981739"
             cy="34.449409"
             r="2.9007449" /><path
             id="path60"
             style="fill:none;stroke:#575357;stroke-width:0.499999;stroke-linecap:round;stroke-opacity:1"
             d="m 37.82205,33.80909 a 2.9115901,2.9115901 0 0 1 0.0713,0.64032 v 0 a 2.9115901,2.9115901 0 0 1 -2.91159,2.91159 2.9115901,2.9115901 0 0 1 -2.91159,-2.91159 2.9115901,2.9115901 0 0 1 2.91159,-2.91159 2.9115901,2.9115901 0 0 1 0.33706,0.0196" /></g></g><g
         id="g62"
         style="fill:none"><path
           id="path61"
           style="fill:none;fill-opacity:1;stroke:#575357;stroke-width:0.5;stroke-linejoin:round;stroke-dasharray:none;stroke-opacity:1"
           d="m 41.726755,23.909035 0.28353,2.569653 2.601408,-0.02111 -2.481494,2.809034 -2.610826,0.05654 -0.274111,-2.605085 z"
           sodipodi:nodetypes="ccccccc" /><path
           style="fill:none;stroke:#575357;stroke-width:0.5;stroke-linecap:round;stroke-linejoin:miter;stroke-dasharray:none;stroke-opacity:1"
           d="M 39.465269,29.376152 34.976735,34.45714"
           id="path62" /></g></g></g></svg>
