<?xml version="1.0" encoding="UTF-8" standalone="no"?>
<!-- Created with Inkscape (http://www.inkscape.org/) -->

<svg
   width="45.74548mm"
   height="41.776634mm"
   viewBox="0 0 45.74548 41.776634"
   version="1.1"
   id="svg1"
   xml:space="preserve"
   sodipodi:docname="website_attributes.svg"
   inkscape:version="1.3.2 (091e20e, 2023-11-25, custom)"
   xmlns:inkscape="http://www.inkscape.org/namespaces/inkscape"
   xmlns:sodipodi="http://sodipodi.sourceforge.net/DTD/sodipodi-0.dtd"
   xmlns="http://www.w3.org/2000/svg"
   xmlns:svg="http://www.w3.org/2000/svg"><sodipodi:namedview
     id="namedview1"
     pagecolor="#ffffff"
     bordercolor="#666666"
     borderopacity="1.0"
     inkscape:showpageshadow="2"
     inkscape:pageopacity="0.0"
     inkscape:pagecheckerboard="0"
     inkscape:deskcolor="#d1d1d1"
     inkscape:document-units="mm"
     inkscape:zoom="1"
     inkscape:cx="327.5"
     inkscape:cy="564.5"
     inkscape:window-width="2560"
     inkscape:window-height="1377"
     inkscape:window-x="-8"
     inkscape:window-y="-8"
     inkscape:window-maximized="1"
     inkscape:current-layer="layer2" /><defs
     id="defs1" /><g
     inkscape:groupmode="layer"
     id="layer2"
     inkscape:label="Layer 2"
     transform="translate(-82.127253,-220.60641)"><g
       id="g86"
       inkscape:label="values"
       transform="matrix(1.6623979,0,0,1.6623979,-120.91951,191.91114)"><g
         id="g78"
         transform="translate(-0.41761609)"
         style="fill:none;fill-opacity:1;stroke:#575357;stroke-width:0.5;stroke-dasharray:none;stroke-opacity:1"><path
           style="fill:none;fill-opacity:1;stroke:#575357;stroke-width:0.5;stroke-linecap:round;stroke-linejoin:round;stroke-dasharray:none;stroke-opacity:1"
           d="m 125.50959,29.513235 c 0,0 -0.18706,-1.496708 -0.23386,-4.115951 -0.0468,-2.61924 -1.69984,-3.23979 -2.15152,-2.993419 -0.51449,0.280633 -0.23383,7.343233 -0.28063,8.372219 -0.0468,1.028988 0.70158,4.677216 3.60146,5.846521 2.89987,1.169305 2.24506,5.519116 2.24506,5.519116 h 4.86431 v -5.893292 c 0,0 0.048,-0.419531 -1.40316,-1.637026 -1.62035,-1.359483 -4.37528,-3.099891 -4.81754,-3.788546 -0.43579,-0.67858 -1.73057,-2.245064 -2.05797,-0.841899 -0.32741,1.403165 0.60803,2.80633 1.87088,3.648229 1.26285,0.841899 2.47893,2.15152 2.61924,2.712786"
           id="path77"
           sodipodi:nodetypes="csssscccssssc" /><path
           style="fill:none;fill-opacity:1;stroke:#575357;stroke-width:0.5;stroke-linecap:round;stroke-linejoin:round;stroke-dasharray:none;stroke-opacity:1"
           d="m 147.1252,29.513235 c 0,0 0.18706,-1.496708 0.23386,-4.115951 0.0468,-2.61924 1.69984,-3.23979 2.15152,-2.993419 0.51449,0.280633 0.23383,7.343233 0.28063,8.372219 0.0468,1.028988 -0.70158,4.677216 -3.60146,5.846521 -2.89987,1.169305 -2.24506,5.519116 -2.24506,5.519116 h -4.86431 v -5.893292 c 0,0 -0.048,-0.419531 1.40316,-1.637026 1.62035,-1.359483 4.37528,-3.099891 4.81754,-3.788546 0.43579,-0.67858 1.73057,-2.245064 2.05797,-0.841899 0.32741,1.403165 -0.60803,2.80633 -1.87088,3.648229 -1.26285,0.841899 -2.47893,2.15152 -2.61924,2.712786"
           id="path78"
           sodipodi:nodetypes="csssscccssssc" /></g><g
         id="g85"><path
           sodipodi:type="star"
           style="fill:#d26b65;fill-opacity:1;stroke:#575357;stroke-width:0.499999;stroke-linecap:round;stroke-linejoin:round;stroke-dasharray:none;stroke-opacity:1"
           id="path79"
           inkscape:flatsided="false"
           sodipodi:sides="5"
           sodipodi:cx="246.76994"
           sodipodi:cy="74.2742"
           sodipodi:r1="6.754004"
           sodipodi:r2="3.377002"
           sodipodi:arg1="0.93283533"
           sodipodi:arg2="1.5611539"
           inkscape:rounded="0"
           inkscape:randomized="0"
           d="m 250.79235,79.699771 -3.98984,-2.048726 -3.9496,2.125285 0.71552,-4.427659 -3.24175,-3.099539 4.43206,-0.687717 1.94608,-4.040905 2.02364,4.002626 4.4445,0.602123 -3.18138,3.161476 z"
           inkscape:transform-center-x="0.020127614"
           inkscape:transform-center-y="-0.62578145"
           transform="translate(-110.85004,-49.765586)" /><g
           id="g84"
           transform="translate(0.16044391,-0.52916667)"
           style="stroke:#575357;stroke-opacity:1"><path
             style="fill:none;stroke:#575357;stroke-width:0.5;stroke-linecap:round;stroke-linejoin:miter;stroke-dasharray:none;stroke-opacity:1"
             d="m 131.79087,19.495749 -1.15755,-1.455208"
             id="path80" /><path
             style="fill:none;stroke:#575357;stroke-width:0.5;stroke-linecap:round;stroke-linejoin:miter;stroke-dasharray:none;stroke-opacity:1"
             d="m 129.40962,27.069447 -2.01745,0.727604"
             id="path81" /><path
             style="fill:none;stroke:#575357;stroke-width:0.5;stroke-linecap:round;stroke-linejoin:miter;stroke-dasharray:none;stroke-opacity:1"
             d="m 139.6878,19.528822 1.15755,-1.455208"
             id="path82" /><path
             style="fill:none;stroke:#575357;stroke-width:0.5;stroke-linecap:round;stroke-linejoin:miter;stroke-dasharray:none;stroke-opacity:1"
             d="m 142.06905,27.10252 2.01745,0.727604"
             id="path83" /><path
             style="fill:none;stroke:#575357;stroke-width:0.5;stroke-linecap:round;stroke-linejoin:miter;stroke-dasharray:none;stroke-opacity:1"
             d="m 135.72655,31.86502 v 1.918229"
             id="path84" /></g></g></g></g></svg>
